<svg width="240" height="108" viewBox="0 0 240 108" fill="none" xmlns="http://www.w3.org/2000/svg">
<path d="M0 105.445V1.58266H17.4092L17.8049 24.5312H18.9919C22.9485 16.6179 28.8835 10.5511 36.7968 6.33063C44.8419 2.11021 53.5466 0 62.9106 0C69.6369 0 75.7038 0.857273 81.1112 2.57182C86.6505 4.28637 91.3984 7.05602 95.3551 10.8808C99.4436 14.5736 102.609 19.5194 104.851 25.7182C107.093 31.9169 108.214 39.5005 108.214 48.4689V105.445H90.4093V51.6342C90.4093 42.9296 89.2223 35.8076 86.8483 30.2683C84.4743 24.729 80.8474 20.6405 75.9675 18.0027C71.2196 15.365 65.1527 14.0461 57.767 14.0461C49.8537 14.0461 42.8636 15.7606 36.7968 19.1897C30.8618 22.4869 26.1798 27.103 22.7507 33.038C19.4535 38.9729 17.8049 45.963 17.8049 54.0082V105.445H0Z" fill="white"/>
<path d="M184.231 107.027C172.229 107.027 161.81 104.851 152.974 100.499C144.137 96.1464 137.279 90.0136 132.399 82.1003C127.519 74.187 125.079 64.823 125.079 54.0082C125.079 42.9296 127.453 33.3677 132.201 25.3225C137.081 17.2773 143.873 11.0786 152.578 6.7263C161.415 2.2421 171.768 0 183.638 0C195.771 0 206.125 2.30804 214.697 6.92413C223.402 11.4083 229.93 17.8708 234.283 26.3117C238.767 34.7525 240.613 44.9079 239.822 56.7778H142.884C143.148 64.5592 144.994 71.2196 148.424 76.7589C151.853 82.2982 156.667 86.5845 162.865 89.6179C169.064 92.6514 176.318 94.1681 184.627 94.1681C193.991 94.1681 202.102 92.3217 208.96 88.6288C215.818 84.9359 220.171 79.9901 222.017 73.7914H239.031C237.844 80.3858 234.678 86.1889 229.535 91.2006C224.523 96.2124 218.06 100.103 210.147 102.873C202.366 105.642 193.727 107.027 184.231 107.027ZM142.686 46.8862L141.697 44.9079H223.6L222.017 46.8862C222.149 39.6324 220.632 33.4996 217.467 28.4878C214.302 23.4761 209.817 19.6513 204.014 17.0136C198.211 14.3758 191.419 13.0569 183.638 13.0569C175.592 13.0569 168.602 14.4418 162.667 17.2114C156.732 19.981 152.05 23.9377 148.621 29.0813C145.324 34.0931 143.346 40.028 142.686 46.8862Z" fill="white"/>
</svg>
